HIERARCHY
ROOT Hips
{
	OFFSET -0.001795 -0.223333 0.028219
	CHANNELS 6 Xposition Yposition Zposition Zrotation Yrotation Xrotation
	JOINT LeftUpLeg
	{
		OFFSET 0.069520 -0.091406 -0.006815
		CHANNELS 3 Zrotation Yrotation Xrotation
		JOINT LeftLeg
		{
			OFFSET 0.034277 -0.375199 -0.004496
			CHANNELS 3 Zrotation Yrotation Xrotation
			JOINT LeftFoot
			{
				OFFSET -0.013596 -0.397961 -0.043693
				CHANNELS 3 Zrotation Yrotation Xrotation
				JOINT LeftToe
				{
					OFFSET 0.026358 -0.055791 0.119288
					CHANNELS 3 Zrotation Yrotation Xrotation
					End Site
					{
						OFFSET 0.000000 0.000000 0.000000
					}
				}
			}
		}
	}
	JOINT RightUpLeg
	{
		OFFSET -0.067670 -0.090522 -0.004320
		CHANNELS 3 Zrotation Yrotation Xrotation
		JOINT RightLeg
		{
			OFFSET -0.038290 -0.382569 -0.008850
			CHANNELS 3 Zrotation Yrotation Xrotation
			JOINT RightFoot
			{
				OFFSET 0.015774 -0.398415 -0.042312
				CHANNELS 3 Zrotation Yrotation Xrotation
				JOINT RightToe
				{
					OFFSET -0.025372 -0.048144 0.123348
					CHANNELS 3 Zrotation Yrotation Xrotation
					End Site
					{
						OFFSET 0.000000 0.000000 0.000000
					}
				}
			}
		}
	}
	JOINT Spine
	{
		OFFSET -0.002533 0.108963 -0.026696
		CHANNELS 3 Zrotation Yrotation Xrotation
		JOINT Spine1
		{
			OFFSET 0.005487 0.135180 0.001092
			CHANNELS 3 Zrotation Yrotation Xrotation
			JOINT Spine2
			{
				OFFSET 0.001457 0.052922 0.025425
				CHANNELS 3 Zrotation Yrotation Xrotation
				JOINT Neck
				{
					OFFSET -0.002778 0.213870 -0.042857
					CHANNELS 3 Zrotation Yrotation Xrotation
					JOINT Head
					{
						OFFSET 0.005152 0.064970 0.051349
						CHANNELS 3 Zrotation Yrotation Xrotation
						End Site
						{
							OFFSET 0.000000 0.000000 0.000000
						}
					}
				}
				JOINT LeftShoulder
				{
					OFFSET 0.078845 0.121749 -0.034090
					CHANNELS 3 Zrotation Yrotation Xrotation
					JOINT LeftArm
					{
						OFFSET 0.090977 0.030469 -0.008868
						CHANNELS 3 Zrotation Yrotation Xrotation
						JOINT LeftForeArm
						{
							OFFSET 0.259612 -0.012772 -0.027456
							CHANNELS 3 Zrotation Yrotation Xrotation
							JOINT LeftHand
							{
								OFFSET 0.249234 0.008986 -0.001171
								CHANNELS 3 Zrotation Yrotation Xrotation
								End Site
								{
									OFFSET 0.000000 0.000000 0.000000
								}
							}
						}
					}
				}
				JOINT RightShoulder
				{
					OFFSET -0.081759 0.118833 -0.038615
					CHANNELS 3 Zrotation Yrotation Xrotation
					JOINT RightArm
					{
						OFFSET -0.096012 0.032551 -0.009143
						CHANNELS 3 Zrotation Yrotation Xrotation
						JOINT RightForeArm
						{
							OFFSET -0.253742 -0.013329 -0.021401
							CHANNELS 3 Zrotation Yrotation Xrotation
							JOINT RightHand
							{
								OFFSET -0.255298 0.007772 -0.005559
								CHANNELS 3 Zrotation Yrotation Xrotation
								End Site
								{
									OFFSET 0.000000 0.000000 0.000000
								}
							}
						}
					}
				}
			}
		}
	}
}
MOTION
Frames: 8
Frame Time: 0.050000
0.000000 0.632858 0.000000 -13.330891 16.364230 42.154975 23.234226 -0.669295 -35.329329 -16.347284 4.965276 47.381851 11.717096 31.094585 -26.617913 0.000000 0.000000 0.000000 -12.539097 -4.449393 -51.631512 3.697470 -4.880050 58.531347 -3.311172 -10.352970 12.157433 0.000000 0.000000 0.000000 -16.599995 1.944414 73.487861 6.104266 0.659903 -39.956011 8.463627 18.461449 20.996477 8.039200 1.457220 -34.361924 0.000000 0.000000 0.000000 6.143275 -20.720313 6.776140 -21.860137 -45.134447 0.316316 50.357998 -26.546926 -14.224833 0.000000 0.000000 0.000000 -5.425930 11.973704 4.774062 34.919258 34.331409 7.241882 -63.944791 31.428309 -9.149895 0.000000 0.000000 0.000000
-0.031708 0.614003 0.011825 -11.853734 17.968722 45.369782 26.872217 -0.414200 -38.133262 -20.546356 7.276267 48.592622 10.590565 29.952994 -35.099329 0.000000 0.000000 0.000000 -13.158779 -6.377025 -56.149947 5.408705 -7.134537 64.016896 -3.565336 -8.709116 -0.316100 0.000000 0.000000 0.000000 -16.219225 0.695379 72.757299 6.217209 0.465470 -37.410023 6.402223 20.513489 21.338441 9.661063 1.808645 -41.643679 0.000000 0.000000 0.000000 10.404880 -21.164766 7.348065 -19.396554 -47.714232 -1.456905 60.505579 -20.529933 -15.233811 0.000000 0.000000 0.000000 -2.006004 7.848291 4.377528 36.761280 31.264114 6.113059 -72.386056 30.170876 -7.925549 0.000000 0.000000 0.000000
-0.061121 0.577720 0.022853 -6.449977 19.151900 48.239485 26.250111 -1.233250 -35.955886 -22.028336 7.594610 51.513652 9.829193 30.995661 -46.119996 0.000000 0.000000 0.000000 -17.699246 -9.022569 -52.952037 6.152212 -9.523257 66.940542 -5.718666 -11.299686 -18.227172 0.000000 0.000000 0.000000 -14.024713 -2.435794 73.685254 3.779303 0.638880 -36.842993 6.643324 18.414764 20.951407 6.697416 2.579970 -40.232923 0.000000 0.000000 0.000000 11.269836 -21.947037 7.585405 -19.153291 -45.750863 -1.269914 68.726569 -21.784340 -18.339491 0.000000 0.000000 0.000000 0.078615 6.598310 4.431801 38.758228 24.599414 3.677016 -83.931643 33.384408 -12.513109 0.000000 0.000000 0.000000
-0.083955 0.536096 0.032999 -10.035628 17.163786 49.752051 29.451467 -0.618076 -31.166776 -24.014369 10.913758 55.047853 11.905416 34.386760 -28.996916 0.000000 0.000000 0.000000 -17.075022 -7.510522 -54.516361 4.954950 -7.853478 69.547812 -5.441081 -7.613603 -24.196601 0.000000 0.000000 0.000000 -14.647817 0.113641 71.784737 2.582729 0.724233 -35.840375 8.862194 20.609149 18.696933 6.175619 2.977865 -42.459806 0.000000 0.000000 0.000000 7.333130 -20.127102 6.579035 -20.484430 -40.973774 -0.590565 83.621178 -28.216999 -30.349297 0.000000 0.000000 0.000000 8.972167 3.797109 6.235548 34.473435 20.829115 0.545147 -92.974416 35.233400 -15.923154 0.000000 0.000000 0.000000
-0.099857 0.478768 0.040744 -7.981655 19.787582 51.386999 30.461375 -1.714087 -28.213630 -28.546414 12.966976 56.963531 15.027169 37.744340 -15.677108 0.000000 0.000000 0.000000 -17.581523 -8.600809 -52.152665 2.855452 -8.917627 76.737784 -7.561071 -7.659062 -43.075614 0.000000 0.000000 0.000000 -11.900190 -4.111019 72.677526 0.027396 0.984149 -35.949605 10.537775 22.378565 17.846757 7.432859 2.513655 -36.622105 0.000000 0.000000 0.000000 5.872909 -20.118700 6.182819 -21.799504 -34.881082 -0.252767 96.276944 -31.734459 -42.433944 0.000000 0.000000 0.000000 11.383934 0.526244 5.386665 38.239687 17.503573 0.122540 -101.137914 37.472013 -20.469084 0.000000 0.000000 0.000000
-0.109017 0.420601 0.046754 -4.105157 23.356082 53.500477 31.004390 -2.942766 -26.472690 -27.360586 10.903091 60.533380 12.439100 29.301188 -14.328212 0.000000 0.000000 0.000000 -20.026227 -10.833730 -48.265962 0.252978 -10.455686 83.525741 -9.620921 -9.614898 -60.290808 0.000000 0.000000 0.000000 -9.197545 -9.352605 73.739218 0.334404 0.962024 -36.352667 10.554169 23.168551 14.766065 9.498676 2.119304 -39.097061 0.000000 0.000000 0.000000 0.023084 -16.445493 3.255576 -21.303924 -29.994525 0.214361 104.955463 -37.534865 -54.533816 0.000000 0.000000 0.000000 15.403802 -2.205109 4.866059 38.299188 16.397177 -0.267837 -105.399769 40.170144 -25.818402 0.000000 0.000000 0.000000
-0.112660 0.367606 0.050727 -1.091138 25.194411 53.978316 30.078256 -3.546488 -24.780297 -23.674313 7.412023 65.416049 10.365328 22.474373 -10.161744 0.000000 0.000000 0.000000 -23.619067 -11.723939 -41.640536 -3.011136 -10.296110 87.541977 -11.506404 -7.001288 -70.612283 0.000000 0.000000 0.000000 -7.392457 -12.919155 74.994375 2.680986 0.853866 -38.638533 10.848216 26.698300 12.414036 14.601062 0.886819 -38.285723 0.000000 0.000000 0.000000 -8.754020 -18.624343 0.388024 -20.009484 -21.482537 0.683491 115.047652 -47.802506 -75.638859 0.000000 0.000000 0.000000 23.193175 -3.722730 7.185627 30.570523 13.023929 -2.406656 -108.389249 40.648010 -30.125465 0.000000 0.000000 0.000000
-0.110153 0.325828 0.053795 -5.398415 22.414035 50.996302 33.755381 -3.579191 -20.088015 -28.112768 13.642816 67.893213 10.529912 23.613310 -12.357396 0.000000 0.000000 0.000000 -24.173661 -11.557991 -44.880262 -3.740868 -7.197033 95.551592 -11.320377 -9.948805 -70.076769 0.000000 0.000000 0.000000 -6.643745 -11.488471 76.208326 2.809516 1.086088 -42.080103 12.727421 30.206105 10.224904 17.342336 -1.565112 -29.627930 0.000000 0.000000 0.000000 -22.676417 -20.864888 -4.725196 -13.943479 -11.871103 0.395711 122.770351 -59.352331 -91.612841 0.000000 0.000000 0.000000 28.962551 -7.790794 6.584478 24.811527 14.704246 -2.907769 -104.710803 48.981291 -38.115586 0.000000 0.000000 0.000000
